<svg width="11" height="6" viewBox="0 0 11 6" fill="none" xmlns="http://www.w3.org/2000/svg">
<path d="M10.3332 0.540416L10.0052 0.210576C9.90197 0.107567 9.76465 0.0508181 9.61788 0.0508181C9.47119 0.0508181 9.33371 0.107567 9.23049 0.210576L5.48925 3.94735L1.74371 0.206429C1.64065 0.10342 1.50316 0.0467529 1.35648 0.0467529C1.20979 0.0467529 1.07222 0.10342 0.969084 0.206429L0.641034 0.534237C0.427435 0.747409 0.427435 1.09465 0.641034 1.30782L5.10056 5.77786C5.20361 5.88078 5.34094 5.95331 5.48893 5.95331H5.49064C5.63741 5.95331 5.77473 5.8807 5.87779 5.77786L10.3332 1.31993C10.4364 1.21701 10.493 1.0757 10.4932 0.929199C10.4932 0.782613 10.4364 0.643262 10.3332 0.540416Z" fill="#77838F"/>
</svg>
