<svg width="19" height="20" viewBox="0 0 19 20" fill="none" xmlns="http://www.w3.org/2000/svg">
<path d="M17.9805 14.5455H17.0703V7.27273C17.0703 3.26273 13.8035 0 9.78858 0C5.77362 0 2.50685 3.26273 2.50685 7.27273V14.5455H1.59663C1.09327 14.5455 0.686401 14.9518 0.686401 15.4546C0.686401 15.9573 1.09327 16.3637 1.59663 16.3637H2.50685H6.14771C6.14771 18.3691 7.78063 20 9.78858 20C11.7965 20 13.4294 18.3691 13.4294 16.3636H17.0703H17.9805C18.4839 16.3636 18.8907 15.9573 18.8907 15.4545C18.8907 14.9518 18.4838 14.5455 17.9805 14.5455ZM9.78858 18.1818C8.7846 18.1818 7.96816 17.3664 7.96816 16.3637H11.609C11.609 17.3664 10.7925 18.1818 9.78858 18.1818ZM15.2498 14.5455H13.4294H6.14771H4.3273V7.27273C4.3273 4.26457 6.77669 1.8182 9.78858 1.8182C12.8005 1.8182 15.2498 4.26457 15.2498 7.27273V14.5455Z" fill="#949DA6"/>
</svg>
