<svg width="21" height="20" viewBox="0 0 21 20" fill="none" xmlns="http://www.w3.org/2000/svg">
<g clip-path="url(#clip0_270_3224)">
<path d="M9.015 0C4.15263 0 0.196533 3.95121 0.196533 8.80758C0.196533 13.6642 4.15263 17.6152 9.015 17.6152C13.8776 17.6152 17.8335 13.6642 17.8335 8.80758C17.8335 3.95121 13.8776 0 9.015 0ZM9.015 15.9892C5.05022 15.9892 1.82456 12.7675 1.82456 8.80762C1.82456 4.84773 5.05022 1.62602 9.015 1.62602C12.9798 1.62602 16.2054 4.8477 16.2054 8.80758C16.2054 12.7675 12.9798 15.9892 9.015 15.9892Z" fill="#949DA6"/>
<path d="M19.9828 18.6122L15.3158 13.951C14.9977 13.6334 14.4827 13.6334 14.1647 13.951C13.8467 14.2683 13.8467 14.7832 14.1647 15.1006L18.8317 19.7619C18.9907 19.9206 19.1989 20.0001 19.4073 20.0001C19.6154 20.0001 19.8238 19.9206 19.9828 19.7619C20.3008 19.4445 20.3008 18.9296 19.9828 18.6122Z" fill="#949DA6"/>
</g>
<defs>
<clipPath id="clip0_270_3224">
<rect width="20.0247" height="20" fill="white" transform="translate(0.196533)"/>
</clipPath>
</defs>
</svg>
